<svg fill="#F6862A" viewBox="0 0 32 32" id="icon" xmlns="http://www.w3.org/2000/svg"><g id="SVGRepo_bgCarrier" stroke-width="0"></g><g id="SVGRepo_tracerCarrier" stroke-linecap="round" stroke-linejoin="round"></g><g id="SVGRepo_iconCarrier"><defs><style>.cls-1{fill:none;}</style></defs><title>quotes</title><path d="M12,15H6.11A9,9,0,0,1,10,8.86l1.79-1.2L10.69,6,8.9,7.2A11,11,0,0,0,4,16.35V23a2,2,0,0,0,2,2h6a2,2,0,0,0,2-2V17A2,2,0,0,0,12,15Z"></path><path d="M26,15H20.11A9,9,0,0,1,24,8.86l1.79-1.2L24.7,6,22.9,7.2A11,11,0,0,0,18,16.35V23a2,2,0,0,0,2,2h6a2,2,0,0,0,2-2V17A2,2,0,0,0,26,15Z"></path><rect id="_Transparent_Rectangle_" data-name="<Transparent Rectangle>" class="cls-1" width="10" height="10"></rect></g></svg>